<svg width="120" height="120" viewBox="0 0 120 120" fill="none" xmlns="http://www.w3.org/2000/svg">
  <defs>
    <linearGradient id="glassGrad" x1="0%" y1="0%" x2="0%" y2="100%">
      <stop offset="0%" stopColor="#7dd3fc" stopOpacity="0.8" />
      <stop offset="50%" stopColor="#0ea5e9" stopOpacity="0.6" />
      <stop offset="100%" stopColor="#0369a1" stopOpacity="0.8" />
    </linearGradient>
    <linearGradient id="silverGrad" x1="0%" y1="0%" x2="100%" y2="0%">
      <stop offset="0%" stopColor="#94a3b8" />
      <stop offset="20%" stopColor="#f1f5f9" />
      <stop offset="50%" stopColor="#cbd5e1" />
      <stop offset="80%" stopColor="#f1f5f9" />
      <stop offset="100%" stopColor="#475569" />
    </linearGradient>
  </defs>
  <path d="M20 70 C 5 70, 5 110, 60 115 C 100 115, 115 105, 115 105 L 115 108 C 115 108, 100 118, 60 118 C 0 118, 0 70, 20 65 Z" fill="url(#silverGrad)" />
  <path d="M20 70 C 15 70, 10 75, 10 90 C 10 105, 15 112, 18 113 L 22 110 C 20 108, 15 100, 15 90 C 15 80, 18 73, 22 71 Z" fill="#cbd5e1" />
  <rect x="25" y="30" width="18" height="60" fill="url(#glassGrad)" stroke="#cbd5e1" strokeWidth="0.5" />
  <rect x="40" y="15" width="18" height="75" fill="url(#glassGrad)" stroke="#cbd5e1" strokeWidth="0.5" />
  <rect x="55" y="25" width="22" height="65" fill="url(#glassGrad)" stroke="#cbd5e1" strokeWidth="0.5" />
  <rect x="75" y="45" width="15" height="45" fill="url(#glassGrad)" stroke="#cbd5e1" strokeWidth="0.5" />
  <rect x="22" y="85" width="75" height="3" rx="1" fill="url(#silverGrad)" />
  <rect x="26" y="88" width="2" height="15" fill="#94a3b8" />
  <rect x="48" y="88" width="2" height="18" fill="#94a3b8" />
  <rect x="72" y="88" width="2" height="15" fill="#94a3b8" />
  <rect x="92" y="88" width="2" height="12" fill="#94a3b8" />
  <rect x="26" y="93" width="67" height="1" fill="#cbd5e1" />
  <rect x="26" y="98" width="67" height="1" fill="#cbd5e1" />
  <rect x="26" y="103" width="67" height="1" fill="#cbd5e1" />
</svg>
